<?xml version="1.0" encoding="UTF-8"?>
<svg width="64px" height="64px" viewBox="0 0 64 64" version="1.1" xmlns="http://www.w3.org/2000/svg" xmlns:xlink="http://www.w3.org/1999/xlink">
    <!-- Generator: Sketch 50 (54983) - http://www.bohemiancoding.com/sketch -->
    <title>logo</title>
    <desc>Created with Sketch.</desc>
    <defs></defs>
    <g id="Page-1" stroke="none" stroke-width="1" fill="none" fill-rule="evenodd">
        <g id="logo" fill="#FFFFFF" fill-rule="nonzero">
            <path d="M32,0 C14.326888,-1.082166e-15 2.164332e-15,14.326888 0,32 C-2.164332e-15,49.673112 14.326888,64 32,64 C49.673112,64 64,49.673112 64,32 C64,23.5130723 60.6285811,15.3737471 54.627417,9.372583 C48.6262529,3.37141889 40.4869277,5.19674441e-16 32,0 Z M26.32,17.2 C26.3006064,16.2986687 26.6508148,15.4286446 27.2892435,14.7921048 C27.9276722,14.1555649 28.7987302,13.8079359 29.7,13.83 C30.6045775,13.8284438 31.4722599,14.188478 32.11,14.83 C32.773344,15.4487012 33.1377739,16.323333 33.11,17.23 L33.11,26.15 C33.1053372,26.499046 33.2554592,26.8322435 33.52,27.06 C33.78,27.28 33.86,27.4 34.2,27.4 L37.2,27.4 C37.5410181,27.4348531 37.8796171,27.3144017 38.1220094,27.0720094 C38.3644017,26.8296171 38.4848531,26.4910181 38.45,26.15 C38.4507669,25.8136577 38.3259533,25.4891422 38.1,25.24 C37.8762069,24.9758866 37.5461491,24.825527 37.2,24.83 L36.38,24.83 C36.099358,24.8318991 35.8308345,24.7157808 35.64,24.51 C35.4305206,24.3209408 35.310667,24.0521782 35.31,23.77 C35.310667,23.4878218 35.4305206,23.2190592 35.64,23.03 C35.8290592,22.8205206 36.0978218,22.700667 36.38,22.7 L37.2,22.7 C38.1071521,22.6695805 38.9828358,23.0344487 39.6,23.7 C40.2439928,24.3401794 40.6042323,25.211959 40.6,26.12 C40.6195003,27.0257645 40.2668835,27.8999341 39.6243759,28.5386622 C38.9818684,29.1773903 38.1056337,29.5248436 37.2,29.5 L34.2,29.5 C33.8211069,29.5017096 33.4473263,29.412551 33.11,29.24 C32.7022473,29.0695537 32.329364,28.8254847 32.01,28.52 C31.4016034,27.9624231 31.0415224,27.1846482 31.01,26.36 C31.0050468,26.2800767 31.0050468,26.1999233 31.01,26.12 L31.01,17.2 C31.0130773,16.8541458 30.8629749,16.5246526 30.6,16.3 C30.3461726,16.0944126 30.0264144,15.9878265 29.7,16 C29.3589819,15.9651469 29.0203829,16.0855983 28.7779906,16.3279906 C28.5355983,16.5703829 28.4151469,16.9089819 28.45,17.25 L28.45,19.41 C28.4518991,19.690642 28.3357808,19.9591655 28.13,20.15 C27.9403027,20.3618604 27.6693763,20.4829355 27.385,20.4829355 C27.1006237,20.4829355 26.8296973,20.3618604 26.64,20.15 C26.4342192,19.9591655 26.3181009,19.690642 26.32,19.41 L26.32,17.2 Z M33.13,49.87 C32.9537071,50.0453619 32.7184039,50.1487527 32.47,50.16 L32.38,50.16 L32.3,50.16 C31.9913131,50.1103696 31.6914999,50.0160464 31.41,49.88 C30.4131392,49.4570839 29.5092875,48.842057 28.75,48.07 C28.0011382,47.2849898 27.4073853,46.3655209 27,45.36 C26.5431099,44.2991714 26.3115522,43.1550041 26.32,42 L26.32,26 C26.324473,25.6538509 26.1741134,25.3237931 25.91,25.1 C25.6544746,24.8904126 25.3300709,24.7834663 25,24.8 L23.87,24.8 C23.5238509,24.795527 23.1937931,24.9458866 22.97,25.21 C22.7405942,25.4570023 22.6152364,25.7829326 22.62,26.12 C22.5608363,26.409177 22.6324487,26.7097197 22.8156599,26.9411443 C22.998871,27.1725689 23.2749631,27.3112318 23.57,27.32 C23.8413863,27.3566373 24.0974267,27.4673575 24.31,27.64 C24.5218604,27.8296973 24.6429355,28.1006237 24.6429355,28.385 C24.6429355,28.6693763 24.5218604,28.9403027 24.31,29.13 C24.1191655,29.3357808 23.850642,29.4518991 23.57,29.45 C22.7612597,29.4914681 21.9799734,29.1508124 21.46,28.53 C20.8046688,27.9016132 20.4420694,27.0277485 20.46,26.12 C20.4557677,25.211959 20.8160072,24.3401794 21.46,23.7 C22.0771642,23.0344487 22.9528479,22.6695805 23.86,22.7 L25,22.7 C25.908041,22.6957677 26.7798206,23.0560072 27.42,23.7 C28.0855513,24.3171642 28.4504195,25.1928479 28.42,26.1 L28.42,42 C28.329301,43.7044491 28.9952796,45.362077 30.24,46.53 C31.1532383,47.2149926 32.1234481,47.8205374 33.14,48.34 C33.3518604,48.5296973 33.4729355,48.8006237 33.4729355,49.085 C33.4729355,49.3693763 33.3518604,49.6403027 33.14,49.83 L33.13,49.87 Z M41.94,45.5 C41.8227532,45.7711744 41.6891749,46.0349917 41.54,46.29 C41.1814534,46.9340002 40.7411358,47.5289331 40.23,48.06 C39.4724155,48.8340944 38.5681309,49.4494158 37.57,49.87 C37.255681,50.0230836 36.9174525,50.1211699 36.57,50.16 L36.48,50.16 C36.2315961,50.1487527 35.9962929,50.0453619 35.82,49.87 C35.6093677,49.6850703 35.4860174,49.4202298 35.48,49.14 C35.4672215,48.8555063 35.5763453,48.5790595 35.78,48.38 C36.7951441,47.8580546 37.7651498,47.2526372 38.68,46.57 C39.1337021,46.1854024 39.5132745,45.721104 39.8,45.2 C39.9150089,44.9214026 39.9150089,44.6085974 39.8,44.33 C39.6788797,44.0176469 39.4426929,43.7635673 39.14,43.62 C38.8515638,43.4347778 38.4950922,43.3891776 38.1693192,43.4958295 C37.8435462,43.6024814 37.5830567,43.8500629 37.46,44.17 C37.3065092,44.4283482 37.1217855,44.6668097 36.91,44.88 C36.335557,45.4880674 35.5458489,45.8470257 34.71,45.88 L34.5,45.88 C33.591959,45.8842323 32.7201794,45.5239928 32.08,44.88 C31.4155562,44.262064 31.0509083,43.3869091 31.08,42.48 L31.08,32.82 C31.0957222,32.2412156 31.5612156,31.7757222 32.14,31.76 C32.420642,31.7581009 32.6891655,31.8742192 32.88,32.08 C33.0857808,32.2708345 33.2018991,32.539358 33.2,32.82 L33.2,42.2 C33.1866117,42.5992974 33.3385688,42.9864262 33.62,43.27 C33.8892774,43.5298312 34.2459478,43.6796327 34.62,43.69 C35.0329357,43.6989241 35.4172682,43.4798546 35.62,43.12 C36.0268903,42.3360913 36.7293655,41.7466216 37.5720104,41.4820049 C38.4146554,41.2173881 39.3280084,41.2994373 40.11,41.71 C40.9291242,42.1180278 41.5491838,42.8390274 41.83,43.71 C41.9431368,44.015075 42.0105326,44.3352051 42.03,44.66 C42.0408772,44.9428823 42.01056,45.2258431 41.94,45.5 Z" id="Shape"></path>
        </g>
    </g>
</svg>