<svg width="135" height="26" viewBox="0 0 135 26" fill="none" xmlns="http://www.w3.org/2000/svg">
<g clip-path="url(#clip0_30_3542)">
<path d="M6.64128 0.791382C6.64128 0.791382 1.84813 15.8177 12.5498 25.3192C21.265 14.8056 18.0988 0.791382 18.0988 0.791382C21.9287 5.1886 23.2929 7.82509 23.2929 7.82509L21.6337 8.7586L24.74 11.067C17.4535 24.254 12.5498 25.3192 12.5498 25.3192C12.5498 25.3192 4.94524 23.2812 0 11.0646L3.10633 8.75629L1.44716 7.82278C1.44486 7.82278 2.81137 5.1863 6.64128 0.791382Z" fill="#212C41"/>
<path d="M12.8954 7.07405C12.7479 6.97469 12.5728 6.92385 12.3953 6.92616C12.1603 6.92847 11.9344 7.02321 11.7685 7.1942C11.6026 7.36519 11.5104 7.59395 11.5127 7.83426C11.5127 8.01449 11.5657 8.1901 11.6648 8.33799C11.7639 8.48818 11.9045 8.60372 12.0681 8.67073C12.2317 8.74005 12.4115 8.75622 12.5866 8.72156C12.7594 8.68459 12.9184 8.59909 13.0452 8.4697C13.1696 8.34261 13.2549 8.17855 13.2871 8.00294C13.3194 7.82733 13.301 7.64478 13.2318 7.47841C13.1604 7.31436 13.0452 7.1734 12.8954 7.07405Z" fill="#212C41"/>
<path d="M12.8954 13.1069C12.7479 13.0075 12.5728 12.9567 12.3953 12.959C12.1603 12.9613 11.9344 13.056 11.7685 13.227C11.6026 13.398 11.5104 13.6268 11.5127 13.8648C11.5127 14.045 11.5657 14.2206 11.6648 14.3685C11.7639 14.5187 11.9045 14.6342 12.0681 14.7013C12.2317 14.7706 12.4115 14.7867 12.5866 14.7521C12.7594 14.7151 12.9184 14.6296 13.0452 14.5002C13.1696 14.3731 13.2549 14.2091 13.2871 14.0335C13.3194 13.8579 13.301 13.6753 13.2318 13.5089C13.1604 13.3472 13.0452 13.2062 12.8954 13.1069Z" fill="#212C41"/>
<path d="M12.8954 19.9342C12.7479 19.8349 12.5728 19.784 12.3953 19.7863C12.1603 19.7887 11.9344 19.8834 11.7685 20.0544C11.6026 20.2254 11.5104 20.4541 11.5127 20.6921C11.5127 20.8724 11.5657 21.048 11.6648 21.1959C11.7639 21.3461 11.9045 21.4616 12.0681 21.5286C12.2317 21.5979 12.4115 21.6141 12.5866 21.5794C12.7594 21.5425 12.9184 21.457 13.0452 21.3276C13.1696 21.2005 13.2549 21.0364 13.2871 20.8608C13.3194 20.6852 13.301 20.5027 13.2318 20.3363C13.1604 20.1745 13.0452 20.0336 12.8954 19.9342Z" fill="#212C41"/>
<path d="M11.6203 2.27497C12.1434 1.98614 13.1735 2.27497 13.1735 2.27497C14.9271 0.913982 17.5103 0.680603 17.5103 0.680603C18.4206 3.37255 16.9757 6.23086 16.9757 6.23086C16.9757 6.23086 15.1138 5.57231 14.192 5.13097C13.9224 5.00158 13.685 4.80979 13.4984 4.57179C13.3117 4.33379 13.1827 4.0542 13.1205 3.75843C12.7448 4.16973 11.6203 3.86934 11.6203 3.86934C11.3253 5.28348 7.71204 6.23317 7.71204 6.23317C6.4377 3.20849 7.17511 0.680603 7.17511 0.680603C10.0003 1.03876 11.6203 2.27497 11.6203 2.27497Z" fill="#212C41"/>
<path d="M34.7402 18.2389V3.24866H36.5757V8.93283C37.2269 7.98177 38.4924 7.34855 39.9323 7.34855C41.097 7.34855 42.0847 7.72552 42.8932 8.49672C43.7016 9.26791 44.0972 10.3569 44.0972 11.8032V18.2389H42.2224V12.3379C42.2224 10.2584 41.1363 9.11022 39.5367 9.11022C37.8191 9.11022 36.6347 10.4358 36.6347 12.3379V18.2389H34.7402Z" fill="#212C41"/>
<path d="M56.6786 13.7029H48.248C48.565 15.504 49.7493 16.7335 51.9608 16.7335C53.2238 16.7335 54.6858 16.2579 55.6539 15.5459L56.4648 16.9922C55.4181 17.8028 53.6808 18.4779 51.9239 18.4779C47.9359 18.4779 46.2773 15.6469 46.2773 12.8947C46.2773 11.2908 46.7712 9.9849 47.759 8.93529C48.7665 7.88568 50.0491 7.37073 51.6291 7.37073C53.1304 7.37073 54.3541 7.84626 55.3026 8.81702C56.2707 9.78779 56.7449 11.0936 56.7449 12.7371C56.7376 12.8726 56.7179 13.1879 56.6786 13.7029ZM54.7816 12.0595C54.6834 10.219 53.3589 9.05109 51.6217 9.05109C49.8845 9.05109 48.5601 10.2978 48.2455 12.0595H54.7816Z" fill="#212C41"/>
<path d="M65.6212 7.62561H67.7148L63.2722 19.4251C62.3827 21.8003 61.2573 22.7514 59.5987 22.7514C58.9082 22.7514 58.3554 22.6134 57.9008 22.335L58.1367 20.6718C58.6306 20.8887 59.0655 20.9897 59.4193 20.9897C60.2892 20.9897 60.9796 20.3762 61.5128 19.1295L61.9084 18.1981L57.3086 7.62561H59.5004L62.7783 15.5839L65.6212 7.62561Z" fill="#212C41"/>
<path d="M70.3207 16.891C69.2739 15.8414 68.7407 14.4961 68.7407 12.8527C68.7407 11.2093 69.2739 9.86399 70.3403 8.81438C71.4068 7.76476 72.7877 7.2301 74.4881 7.2301C76.6799 7.2301 78.594 8.29943 79.4639 10.1794L77.3703 11.3078C76.7389 10.2582 75.7117 9.60528 74.5274 9.60528C73.5986 9.60528 72.8295 9.92312 72.2176 10.5366C71.6058 11.1501 71.3085 11.9213 71.3085 12.8527C71.3085 13.784 71.6058 14.5552 72.198 15.1687C72.7902 15.7822 73.5396 16.1001 74.4488 16.1001C75.6331 16.1001 76.7978 15.4274 77.331 14.4172L79.4245 15.6442C78.4957 17.3665 76.6012 18.4752 74.4094 18.4752C72.7508 18.4752 71.3871 17.9406 70.3207 16.891Z" fill="#212C41"/>
<path d="M89.3934 7.48565H91.8408V18.238H89.3934V16.9124C88.4646 17.962 87.2999 18.4967 85.8993 18.4967C84.3587 18.4967 83.0957 17.962 82.0883 16.873C81.0808 15.784 80.5869 14.419 80.5869 12.815C80.5869 11.211 81.0808 9.86575 82.0883 8.81614C83.0957 7.76653 84.3784 7.23187 85.8993 7.23187C87.2606 7.23187 88.4278 7.76653 89.3934 8.85556V7.48565ZM88.5629 10.5359C87.9707 9.90271 87.2213 9.58487 86.2925 9.58487C85.3637 9.58487 84.6142 9.90271 84.0221 10.5359C83.4495 11.1691 83.1522 11.9428 83.1522 12.852C83.1522 13.7833 83.4495 14.5545 84.0221 15.1877C84.6142 15.8209 85.3637 16.1388 86.2925 16.1388C87.2213 16.1388 87.9707 15.8209 88.5629 15.1877C89.1551 14.5545 89.4524 13.7808 89.4524 12.852C89.4524 11.9403 89.1551 11.1691 88.5629 10.5359Z" fill="#212C41"/>
<path d="M94.4712 18.2391V7.4867H96.9407V8.97242C97.5918 7.80454 98.5993 7.21075 99.9212 7.21075C100.376 7.21075 100.811 7.28959 101.204 7.42757L100.988 9.90377C100.553 9.76579 100.137 9.68695 99.7443 9.68695C98.1447 9.68695 97.0389 10.7563 97.0389 12.9935V18.2416H94.4712V18.2391Z" fill="#212C41"/>
<path d="M101.578 16.3768L103.04 14.7926C103.75 15.7436 104.876 16.3177 105.922 16.3177C106.851 16.3177 107.502 15.8225 107.502 15.1893C107.502 14.7729 107.227 14.4181 106.694 14.1594C106.517 14.0608 106.082 13.8834 105.392 13.6247C104.721 13.3685 104.266 13.1689 104.028 13.0506C102.824 12.4568 102.232 11.5452 102.232 10.3182C102.232 9.3868 102.588 8.6156 103.298 8.02181C104.008 7.42801 104.957 7.12988 106.121 7.12988C107.642 7.12988 108.866 7.66454 109.795 8.71416L108.453 10.3576C107.763 9.62579 106.952 9.24882 106.045 9.24882C105.237 9.24882 104.743 9.68493 104.743 10.259C104.743 10.7346 105.06 11.0894 105.672 11.3087C107.212 11.9222 108.08 12.2794 108.259 12.378C109.463 13.0309 110.075 13.9425 110.075 15.1104C110.075 16.0812 109.699 16.8918 108.93 17.5447C108.161 18.1977 107.153 18.5155 105.908 18.5155C104.163 18.5155 102.583 17.7837 101.578 16.3768Z" fill="#212C41"/>
<path d="M113.011 8.85416C114.097 7.76512 115.459 7.21075 117.137 7.21075C118.815 7.21075 120.179 7.76512 121.245 8.85416C122.331 9.94319 122.865 11.2688 122.865 12.8531C122.865 14.457 122.331 15.8023 121.245 16.8913C120.179 17.9804 118.818 18.515 117.137 18.515C115.459 18.515 114.095 17.9804 113.011 16.8913C111.945 15.8023 111.412 14.457 111.412 12.8531C111.412 11.2688 111.945 9.94073 113.011 8.85416ZM119.37 10.5567C118.759 9.92348 118.029 9.60564 117.139 9.60564C116.25 9.60564 115.52 9.92348 114.908 10.5567C114.296 11.1899 113.999 11.9636 113.999 12.8531C113.999 13.7647 114.296 14.5359 114.908 15.1691C115.52 15.8023 116.25 16.1202 117.139 16.1202C118.029 16.1202 118.759 15.8023 119.37 15.1691C119.982 14.5359 120.28 13.7622 120.28 12.8531C120.28 11.9611 119.982 11.1899 119.37 10.5567Z" fill="#212C41"/>
<path d="M124.874 18.2391V7.4867H127.402V8.99213C127.975 7.9031 129.218 7.21075 130.779 7.21075C131.943 7.21075 132.951 7.60743 133.759 8.37863C134.57 9.14982 134.983 10.2389 134.983 11.6852V18.2391H132.395V12.3972C132.395 10.5961 131.467 9.56622 130.046 9.56622C128.525 9.56622 127.439 10.7538 127.439 12.4367V18.2391H124.874Z" fill="#212C41"/>
</g>
<defs>
<clipPath id="clip0_30_3542">
<rect width="135" height="26" fill="white"/>
</clipPath>
</defs>
</svg>
