<svg width="26" height="26" viewBox="0 0 26 26" fill="none" xmlns="http://www.w3.org/2000/svg">
<g clip-path="url(#clip0_30_3542)">
<path d="M6.64128 0.791382C6.64128 0.791382 1.84813 15.8177 12.5498 25.3192C21.265 14.8056 18.0988 0.791382 18.0988 0.791382C21.9287 5.1886 23.2929 7.82509 23.2929 7.82509L21.6337 8.7586L24.74 11.067C17.4535 24.254 12.5498 25.3192 12.5498 25.3192C12.5498 25.3192 4.94524 23.2812 0 11.0646L3.10633 8.75629L1.44716 7.82278C1.44486 7.82278 2.81137 5.1863 6.64128 0.791382Z" fill="#212C41"/>
<path d="M12.8954 7.07405C12.7479 6.97469 12.5728 6.92385 12.3953 6.92616C12.1603 6.92847 11.9344 7.02321 11.7685 7.1942C11.6026 7.36519 11.5104 7.59395 11.5127 7.83426C11.5127 8.01449 11.5657 8.1901 11.6648 8.33799C11.7639 8.48818 11.9045 8.60372 12.0681 8.67073C12.2317 8.74005 12.4115 8.75622 12.5866 8.72156C12.7594 8.68459 12.9184 8.59909 13.0452 8.4697C13.1696 8.34261 13.2549 8.17855 13.2871 8.00294C13.3194 7.82733 13.301 7.64478 13.2318 7.47841C13.1604 7.31436 13.0452 7.1734 12.8954 7.07405Z" fill="#212C41"/>
<path d="M12.8954 13.1069C12.7479 13.0075 12.5728 12.9567 12.3953 12.959C12.1603 12.9613 11.9344 13.056 11.7685 13.227C11.6026 13.398 11.5104 13.6268 11.5127 13.8648C11.5127 14.045 11.5657 14.2206 11.6648 14.3685C11.7639 14.5187 11.9045 14.6342 12.0681 14.7013C12.2317 14.7706 12.4115 14.7867 12.5866 14.7521C12.7594 14.7151 12.9184 14.6296 13.0452 14.5002C13.1696 14.3731 13.2549 14.2091 13.2871 14.0335C13.3194 13.8579 13.301 13.6753 13.2318 13.5089C13.1604 13.3472 13.0452 13.2062 12.8954 13.1069Z" fill="#212C41"/>
<path d="M12.8954 19.9342C12.7479 19.8349 12.5728 19.784 12.3953 19.7863C12.1603 19.7887 11.9344 19.8834 11.7685 20.0544C11.6026 20.2254 11.5104 20.4541 11.5127 20.6921C11.5127 20.8724 11.5657 21.048 11.6648 21.1959C11.7639 21.3461 11.9045 21.4616 12.0681 21.5286C12.2317 21.5979 12.4115 21.6141 12.5866 21.5794C12.7594 21.5425 12.9184 21.457 13.0452 21.3276C13.1696 21.2005 13.2549 21.0364 13.2871 20.8608C13.3194 20.6852 13.301 20.5027 13.2318 20.3363C13.1604 20.1745 13.0452 20.0336 12.8954 19.9342Z" fill="#212C41"/>
<path d="M11.6203 2.27497C12.1434 1.98614 13.1735 2.27497 13.1735 2.27497C14.9271 0.913982 17.5103 0.680603 17.5103 0.680603C18.4206 3.37255 16.9757 6.23086 16.9757 6.23086C16.9757 6.23086 15.1138 5.57231 14.192 5.13097C13.9224 5.00158 13.685 4.80979 13.4984 4.57179C13.3117 4.33379 13.1827 4.0542 13.1205 3.75843C12.7448 4.16973 11.6203 3.86934 11.6203 3.86934C11.3253 5.28348 7.71204 6.23317 7.71204 6.23317C6.4377 3.20849 7.17511 0.680603 7.17511 0.680603C10.0003 1.03876 11.6203 2.27497 11.6203 2.27497Z" fill="#212C41"/>
</g>
<defs>
<clipPath id="clip0_30_3542">
<rect width="26" height="26" fill="white"/>
</clipPath>
</defs>
</svg>
