<svg width="124" height="24" viewBox="0 0 124 24" fill="none" xmlns="http://www.w3.org/2000/svg">
<g clip-path="url(#clip0_320_746)">
<path d="M6.10014 0.775726C6.10014 0.775726 1.69754 14.5905 11.5272 23.3259C19.5323 13.66 16.6241 0.775726 16.6241 0.775726C20.1419 4.8184 21.395 7.24231 21.395 7.24231L19.871 8.10055L22.7241 10.2228C16.0314 22.3466 11.5272 23.3259 11.5272 23.3259C11.5272 23.3259 4.54229 21.4522 0 10.2206L2.85322 8.09843L1.32924 7.24019C1.32713 7.24019 2.5823 4.81628 6.10014 0.775726Z" fill="white"/>
<path d="M11.8443 6.55187C11.7088 6.46052 11.548 6.41378 11.3849 6.4159C11.1691 6.41803 10.9616 6.50513 10.8092 6.66233C10.6568 6.81953 10.5721 7.02985 10.5743 7.25078C10.5743 7.41648 10.6229 7.57793 10.714 7.7139C10.805 7.85198 10.9341 7.9582 11.0844 8.01981C11.2347 8.08354 11.3998 8.0984 11.5607 8.06654C11.7194 8.03255 11.8654 7.95394 11.9819 7.83499C12.0962 7.71814 12.1745 7.56731 12.2041 7.40586C12.2337 7.24441 12.2168 7.07658 12.1533 6.92362C12.0877 6.7728 11.9819 6.64321 11.8443 6.55187Z" fill="white"/>
<path d="M11.8443 12.0983C11.7088 12.0069 11.548 11.9602 11.3849 11.9623C11.1691 11.9644 10.9616 12.0515 10.8092 12.2087C10.6568 12.3659 10.5721 12.5763 10.5743 12.7951C10.5743 12.9607 10.6229 13.1222 10.714 13.2582C10.805 13.3962 10.9341 13.5024 11.0844 13.5641C11.2347 13.6278 11.3998 13.6426 11.5607 13.6108C11.7194 13.5768 11.8654 13.4982 11.9819 13.3792C12.0962 13.2624 12.1745 13.1116 12.2041 12.9502C12.2337 12.7887 12.2168 12.6208 12.1533 12.4679C12.0877 12.3192 11.9819 12.1896 11.8443 12.0983Z" fill="white"/>
<path d="M11.8443 18.3751C11.7088 18.2838 11.548 18.237 11.3849 18.2391C11.1691 18.2413 10.9616 18.3284 10.8092 18.4856C10.6568 18.6428 10.5721 18.8531 10.5743 19.0719C10.5743 19.2376 10.6229 19.3991 10.714 19.5351C10.805 19.6731 10.9341 19.7793 11.0844 19.8409C11.2347 19.9046 11.3998 19.9195 11.5607 19.8876C11.7194 19.8537 11.8654 19.7751 11.9819 19.6561C12.0962 19.5393 12.1745 19.3884 12.2041 19.227C12.2337 19.0655 12.2168 18.8977 12.1533 18.7448C12.0877 18.596 11.9819 18.4665 11.8443 18.3751Z" fill="white"/>
<path d="M10.6734 2.13973C11.1539 1.87419 12.1001 2.13973 12.1001 2.13973C13.7108 0.888481 16.0835 0.67392 16.0835 0.67392C16.9196 3.14881 15.5925 5.77666 15.5925 5.77666C15.5925 5.77666 13.8823 5.17121 13.0356 4.76545C12.7879 4.6465 12.5699 4.47017 12.3985 4.25136C12.227 4.03255 12.1085 3.7755 12.0514 3.50358C11.7063 3.88172 10.6734 3.60555 10.6734 3.60555C10.4025 4.90567 7.08362 5.77878 7.08362 5.77878C5.91311 2.99798 6.59044 0.67392 6.59044 0.67392C9.18543 1.0032 10.6734 2.13973 10.6734 2.13973Z" fill="white"/>
<path d="M31.9092 16.8165V3.03491H33.5951V8.26077C34.1933 7.38639 35.3556 6.80423 36.6782 6.80423C37.748 6.80423 38.6552 7.1508 39.3979 7.85982C40.1404 8.56883 40.5038 9.57001 40.5038 10.8997V16.8165H38.7817V11.3913C38.7817 9.47946 37.7841 8.42385 36.3149 8.42385C34.7372 8.42385 33.6493 9.64255 33.6493 11.3913V16.8165H31.9092Z" fill="white"/>
<path d="M52.0606 12.6462H44.317C44.6081 14.3021 45.6959 15.4325 47.7272 15.4325C48.8873 15.4325 50.2302 14.9952 51.1194 14.3406L51.8642 15.6703C50.9028 16.4156 49.3071 17.0362 47.6933 17.0362C44.0303 17.0362 42.5068 14.4335 42.5068 11.9032C42.5068 10.4286 42.9605 9.22802 43.8678 8.26304C44.7932 7.29806 45.9713 6.82463 47.4226 6.82463C48.8015 6.82463 49.9255 7.26182 50.7967 8.15431C51.686 9.0468 52.1215 10.2473 52.1215 11.7583C52.1148 11.8829 52.0967 12.1728 52.0606 12.6462ZM50.3182 11.1353C50.228 9.44324 49.0114 8.3695 47.4158 8.3695C45.8201 8.3695 44.6036 9.51569 44.3147 11.1353H50.3182Z" fill="white"/>
<path d="M60.2739 7.05894H62.197L58.1163 17.907C57.2993 20.0907 56.2656 20.9651 54.7422 20.9651C54.1079 20.9651 53.6002 20.8383 53.1826 20.5823L53.3993 19.0532C53.853 19.2526 54.2524 19.3455 54.5774 19.3455C55.3764 19.3455 56.0106 18.7815 56.5003 17.6353L56.8637 16.779L52.6387 7.05894H54.6519L57.6627 14.3756L60.2739 7.05894Z" fill="white"/>
<path d="M64.5909 15.5773C63.6294 14.6123 63.1396 13.3755 63.1396 11.8646C63.1396 10.3537 63.6294 9.11685 64.6089 8.15187C65.5885 7.18688 66.8569 6.69533 68.4187 6.69533C70.432 6.69533 72.1901 7.67844 72.9891 9.40683L71.0661 10.4442C70.4861 9.47927 69.5426 8.879 68.4548 8.879C67.6017 8.879 66.8953 9.17121 66.3332 9.73522C65.7713 10.2993 65.4982 11.0083 65.4982 11.8646C65.4982 12.7208 65.7713 13.4298 66.3152 13.9938C66.8592 14.5579 67.5475 14.8501 68.3826 14.8501C69.4704 14.8501 70.5402 14.2317 71.03 13.3029L72.9529 14.431C72.0998 16.0144 70.3597 17.0337 68.3465 17.0337C66.823 17.0337 65.5704 16.5422 64.5909 15.5773Z" fill="white"/>
<path d="M82.1094 6.93026H84.3574V16.8157H82.1094V15.5969C81.2563 16.5619 80.1865 17.0535 78.9 17.0535C77.485 17.0535 76.3249 16.5619 75.3996 15.5607C74.4742 14.5595 74.0205 13.3046 74.0205 11.8299C74.0205 10.3552 74.4742 9.11845 75.3996 8.15347C76.3249 7.1885 77.5031 6.69695 78.9 6.69695C80.1504 6.69695 81.2225 7.1885 82.1094 8.18972V6.93026ZM81.3466 9.73458C80.8027 9.15243 80.1143 8.86022 79.2612 8.86022C78.4081 8.86022 77.7197 9.15243 77.1758 9.73458C76.6499 10.3167 76.3768 11.028 76.3768 11.8639C76.3768 12.7201 76.6499 13.4292 77.1758 14.0113C77.7197 14.5934 78.4081 14.8857 79.2612 14.8857C80.1143 14.8857 80.8027 14.5934 81.3466 14.0113C81.8906 13.4292 82.1636 12.7178 82.1636 11.8639C82.1636 11.0257 81.8906 10.3167 81.3466 9.73458Z" fill="white"/>
<path d="M86.7734 16.8166V6.93124H89.0417V8.29716C89.6398 7.22345 90.5652 6.67754 91.7794 6.67754C92.1971 6.67754 92.5967 6.75002 92.9576 6.87687L92.7592 9.15342C92.3597 9.02656 91.9776 8.95408 91.6169 8.95408C90.1476 8.95408 89.1319 9.93719 89.1319 11.994V16.8189H86.7734V16.8166Z" fill="white"/>
<path d="M93.3018 15.1045L94.6446 13.6481C95.2968 14.5224 96.331 15.0502 97.2918 15.0502C98.1451 15.0502 98.7431 14.5949 98.7431 14.0128C98.7431 13.6299 98.4905 13.3038 98.0009 13.0659C97.8383 12.9753 97.4388 12.8122 96.805 12.5743C96.1887 12.3388 95.7707 12.1553 95.5521 12.0465C94.4462 11.5006 93.9025 10.6625 93.9025 9.53443C93.9025 8.67815 94.2295 7.96914 94.8816 7.42322C95.5338 6.8773 96.4054 6.60321 97.4746 6.60321C98.8717 6.60321 99.9959 7.09476 100.849 8.05975L99.6166 9.57065C98.9828 8.89788 98.2379 8.5513 97.4048 8.5513C96.6626 8.5513 96.2089 8.95225 96.2089 9.48C96.2089 9.91725 96.5 10.2434 97.0622 10.4451C98.4767 11.0091 99.274 11.3375 99.4384 11.4281C100.544 12.0284 101.106 12.8665 101.106 13.9402C101.106 14.8328 100.761 15.578 100.055 16.1783C99.3484 16.7786 98.4225 17.0708 97.2789 17.0708C95.6761 17.0708 94.2249 16.398 93.3018 15.1045Z" fill="white"/>
<path d="M103.803 8.18844C104.8 7.18721 106.051 6.67754 107.593 6.67754C109.134 6.67754 110.387 7.18721 111.366 8.18844C112.363 9.18966 112.854 10.4084 112.854 11.8649C112.854 13.3395 112.363 14.5763 111.366 15.5775C110.387 16.5788 109.137 17.0703 107.593 17.0703C106.051 17.0703 104.798 16.5788 103.803 15.5775C102.824 14.5763 102.334 13.3395 102.334 11.8649C102.334 10.4084 102.824 9.1874 103.803 8.18844ZM109.644 9.75368C109.082 9.17154 108.412 8.87933 107.594 8.87933C106.778 8.87933 106.107 9.17154 105.545 9.75368C104.983 10.3358 104.71 11.0471 104.71 11.8649C104.71 12.703 104.983 13.412 105.545 13.9942C106.107 14.5763 106.778 14.8686 107.594 14.8686C108.412 14.8686 109.082 14.5763 109.644 13.9942C110.206 13.412 110.479 12.7007 110.479 11.8649C110.479 11.0448 110.206 10.3358 109.644 9.75368Z" fill="white"/>
<path d="M114.699 16.8166V6.93124H117.021V8.31528C117.548 7.31406 118.689 6.67754 120.123 6.67754C121.192 6.67754 122.118 7.04223 122.86 7.75125C123.605 8.46026 123.985 9.46151 123.985 10.7912V16.8166H121.607V11.4458C121.607 9.78991 120.755 8.84308 119.45 8.84308C118.053 8.84308 117.055 9.93489 117.055 11.4821V16.8166H114.699Z" fill="white"/>
</g>
<defs>
<clipPath id="clip0_320_746">
<rect width="124" height="23.9036" fill="white" transform="translate(0 0.0481873)"/>
</clipPath>
</defs>
</svg>
