<svg width="32" height="32" viewBox="0 0 32 32" fill="none" xmlns="http://www.w3.org/2000/svg">
<path d="M15.6262 0.884796C15.7658 0.554314 16.2342 0.554316 16.3738 0.884797L20.6876 11.0965C20.7288 11.1938 20.8062 11.2712 20.9035 11.3124L31.1152 15.6262C31.4457 15.7658 31.4457 16.2342 31.1152 16.3738L20.9035 20.6876C20.8062 20.7288 20.7288 20.8062 20.6876 20.9035L16.3738 31.1152C16.2342 31.4457 15.7658 31.4457 15.6262 31.1152L11.3124 20.9035C11.2712 20.8062 11.1938 20.7288 11.0965 20.6876L0.884796 16.3738C0.554314 16.2342 0.554316 15.7658 0.884797 15.6262L11.0965 11.3124C11.1938 11.2712 11.2712 11.1938 11.3124 11.0965L15.6262 0.884796Z"
      fill="#ACE46F"/>
</svg>
