<svg width="47" height="48" viewBox="0 0 47 48" fill="none" xmlns="http://www.w3.org/2000/svg">
  <path d="M41.8333 12.9808L21.9999 23.9993M21.9999 23.9993L2.16659 12.9808M21.9999 23.9993L22 46.166M26.6667 44.7401L23.8131 46.3255C23.1513 46.6931 22.8205 46.8769 22.4701 46.949C22.1599 47.0128 21.8401 47.0128 21.53 46.949C21.1796 46.8769 20.8487 46.6931 20.1869 46.3255L2.92027 36.7329C2.2214 36.3446 1.87193 36.1505 1.61748 35.8743C1.39237 35.6301 1.22201 35.3405 1.1178 35.0251C1 34.6686 1 34.2688 1 33.4693V14.5294C1 13.7299 1 13.3302 1.1178 12.9736C1.22201 12.6582 1.39237 12.3687 1.61748 12.1244C1.87193 11.8483 2.22138 11.6542 2.92027 11.2659L20.1869 1.67331C20.8487 1.30568 21.1796 1.12186 21.53 1.04979C21.8401 0.986008 22.1599 0.986008 22.4701 1.04979C22.8205 1.12186 23.1513 1.30567 23.8131 1.67331L41.0797 11.2659C41.7786 11.6542 42.1281 11.8483 42.3825 12.1244C42.6076 12.3687 42.778 12.6582 42.8822 12.9736C43 13.3302 43 13.7299 43 14.5294L43 25.166M11.5 6.49938L32.5 18.166M38.3333 44.9994V30.9994M31.3333 37.9994H45.3333" stroke="#1F2125" stroke-opacity="0.65" stroke-width="1.5" stroke-linecap="round" stroke-linejoin="round"/>
</svg>
