<svg width="16" height="16" viewBox="0 0 16 16" fill="none" xmlns="http://www.w3.org/2000/svg">
    <path d="M7.00028 8.00001H3.33362M3.27718 8.19435L1.72057 12.8441C1.59828 13.2094 1.53713 13.3921 1.58101 13.5046C1.61912 13.6022 1.70096 13.6763 1.80195 13.7045C1.91824 13.7369 2.09388 13.6579 2.44517 13.4998L13.5862 8.48637C13.929 8.33208 14.1005 8.25493 14.1535 8.14775C14.1995 8.05464 14.1995 7.94539 14.1535 7.85228C14.1005 7.7451 13.929 7.66795 13.5862 7.51366L2.44129 2.4985C2.09106 2.34089 1.91595 2.26209 1.79977 2.29442C1.69888 2.32249 1.61704 2.39635 1.57881 2.49384C1.53478 2.60611 1.59527 2.78836 1.71625 3.15286L3.27761 7.85703C3.29839 7.91964 3.30878 7.95094 3.31288 7.98295C3.31652 8.01136 3.31649 8.04012 3.31277 8.06852C3.30859 8.10052 3.29812 8.1318 3.27718 8.19435Z" stroke="black" stroke-width="1.5" stroke-linecap="round" stroke-linejoin="round"/>
</svg>
