<svg width="15" height="15" viewBox="0 0 15 15" fill="none" xmlns="http://www.w3.org/2000/svg">
<path d="M4.83398 6.99988L7.50065 9.66655L10.1673 6.99988" fill="#D9D9D9"/>
<path d="M4.83398 6.99988L7.50065 9.66655M7.50065 9.66655L10.1673 6.99988M7.50065 9.66655L7.50065 3.53321C7.50065 2.60607 7.50065 2.1425 7.13364 1.62348C6.88979 1.27862 6.1877 0.852997 5.76917 0.796292C5.13924 0.710946 4.90003 0.835732 4.4216 1.08531C2.28954 2.1975 0.833984 4.42871 0.833984 6.99988C0.833984 10.6818 3.81875 13.6665 7.50065 13.6665C11.1826 13.6665 14.1673 10.6818 14.1673 6.99988C14.1673 4.53227 12.8267 2.37779 10.834 1.22509" stroke="#1F2125" stroke-width="1.5" stroke-linecap="round" stroke-linejoin="round"/>
</svg>
