<svg width="42" height="50" viewBox="0 0 42 50" fill="none" xmlns="http://www.w3.org/2000/svg">
  <path d="M38.6663 21.4993V12.866C38.6663 8.94565 38.6663 6.98546 37.9034 5.48808C37.2323 4.17095 36.1614 3.10008 34.8443 2.42897C33.3469 1.66602 31.3867 1.66602 27.4663 1.66602H12.533C8.61264 1.66602 6.65246 1.66602 5.15507 2.42897C3.83794 3.10008 2.76708 4.17095 2.09596 5.48808C1.33301 6.98546 1.33301 8.94565 1.33301 12.866V37.1327C1.33301 41.053 1.33301 43.0132 2.09596 44.5106C2.76708 45.8278 3.83794 46.8986 5.15507 47.5697C6.65246 48.3327 8.61264 48.3327 12.533 48.3327H19.9997M24.6663 22.666H10.6663M15.333 31.9993H10.6663M29.333 13.3327H10.6663M33.9997 45.9993V31.9993M26.9997 38.9993H40.9997" stroke="#1F2125" stroke-opacity="0.65" stroke-width="1.5" stroke-linecap="round" stroke-linejoin="round"/>
</svg>
