<svg width="47" height="47" viewBox="0 0 47 47" fill="none" xmlns="http://www.w3.org/2000/svg">
  <path d="M23.1667 3.99935H12.2C8.27963 3.99935 6.31945 3.99935 4.82207 4.7623C3.50493 5.43342 2.43407 6.50428 1.76295 7.82142C1 9.3188 1 11.279 1 15.1993V34.7993C1 38.7197 1 40.6799 1.76295 42.1773C2.43407 43.4944 3.50493 44.5653 4.82207 45.2364C6.31945 45.9993 8.27963 45.9993 12.2 45.9993H33.6667C35.8366 45.9993 36.9216 45.9993 37.8117 45.7608C40.2274 45.1136 42.1142 43.2267 42.7615 40.8111C43 39.9209 43 38.8359 43 36.666M38.3333 15.666V1.66602M31.3333 8.66602H45.3333M18.5 16.8327C18.5 19.41 16.4107 21.4993 13.8333 21.4993C11.256 21.4993 9.16667 19.41 9.16667 16.8327C9.16667 14.2554 11.256 12.166 13.8333 12.166C16.4107 12.166 18.5 14.2554 18.5 16.8327ZM28.9768 24.8084L9.23935 42.7515C8.12918 43.7607 7.5741 44.2653 7.525 44.7025C7.48244 45.0814 7.62773 45.4572 7.9141 45.7089C8.24448 45.9993 8.99465 45.9993 10.495 45.9993H32.3973C35.7553 45.9993 37.4344 45.9993 38.7531 45.4352C40.4087 44.727 41.7276 43.408 42.4359 41.7525C43 40.4337 43 38.7547 43 35.3966C43 34.2668 43 33.7018 42.8765 33.1757C42.7213 32.5145 42.4236 31.8952 42.0043 31.3609C41.6706 30.9358 41.2294 30.5829 40.3472 29.8771L33.8203 24.6556C32.9372 23.9491 32.4957 23.5959 32.0095 23.4713C31.581 23.3614 31.13 23.3756 30.7092 23.5123C30.2319 23.6673 29.8135 24.0477 28.9768 24.8084Z" stroke="#1F2125" stroke-opacity="0.65" stroke-width="1.5" stroke-linecap="round" stroke-linejoin="round"/>
</svg>
