<svg width="160" height="41" viewBox="0 0 141 22" fill="none" xmlns="http://www.w3.org/2000/svg">
<rect x="0.5" y="0.5" width="140" height="21" rx="10.5" fill="#EAF8DB"/>
<rect x="0.5" y="0.5" width="140" height="21" rx="10.5" stroke="#ACE46F"/>
<path d="M13.5469 5.97083C13.7265 5.5861 14.2735 5.5861 14.4531 5.97082L15.8323 8.92607C15.882 9.03249 15.9675 9.11803 16.0739 9.1677L19.0292 10.5469C19.4139 10.7265 19.4139 11.2735 19.0292 11.4531L16.0739 12.8323C15.9675 12.882 15.882 12.9675 15.8323 13.0739L14.4531 16.0292C14.2735 16.4139 13.7265 16.4139 13.5469 16.0292L12.1677 13.0739C12.118 12.9675 12.0325 12.882 11.9261 12.8323L8.97083 11.4531C8.5861 11.2735 8.5861 10.7265 8.97082 10.5469L11.9261 9.1677C12.0325 9.11803 12.118 9.03249 12.1677 8.92607L13.5469 5.97083Z" fill="#1F2125"/>
<path d="M24.836 15V7.454H26.266V10.523H29.786V7.454H31.216V15H29.786V11.755H26.266V15H24.836ZM32.7716 8.323V7.047H34.1136V8.323H32.7716ZM32.7716 15V9.214H34.1136V15H32.7716ZM35.5431 15V9.214H36.6651L36.7751 10.127H36.8521C36.9255 9.94367 37.0135 9.775 37.1161 9.621C37.2261 9.45967 37.3655 9.33133 37.5341 9.236C37.7028 9.13333 37.9081 9.082 38.1501 9.082C38.2675 9.082 38.3738 9.093 38.4691 9.115C38.5718 9.137 38.6488 9.159 38.7001 9.181V10.446H38.2931C38.0658 10.446 37.8641 10.479 37.6881 10.545C37.5121 10.6037 37.3618 10.699 37.2371 10.831C37.1198 10.963 37.0318 11.128 36.9731 11.326C36.9145 11.524 36.8851 11.755 36.8851 12.019V15H35.5431ZM41.9071 15.132C41.2911 15.132 40.7777 15.0257 40.3671 14.813C39.9564 14.593 39.6484 14.2593 39.4431 13.812C39.2377 13.3647 39.1351 12.7963 39.1351 12.107C39.1351 11.4103 39.2377 10.842 39.4431 10.402C39.6484 9.95467 39.9564 9.62467 40.3671 9.412C40.7777 9.192 41.2911 9.082 41.9071 9.082C42.4644 9.082 42.9301 9.18833 43.3041 9.401C43.6854 9.60633 43.9714 9.92533 44.1621 10.358C44.3527 10.7907 44.4481 11.3517 44.4481 12.041V12.437H40.5101C40.5247 12.7963 40.5797 13.1007 40.6751 13.35C40.7704 13.592 40.9171 13.7753 41.1151 13.9C41.3204 14.0173 41.5881 14.076 41.9181 14.076C42.0867 14.076 42.2444 14.054 42.3911 14.01C42.5377 13.966 42.6661 13.9 42.7761 13.812C42.8861 13.7167 42.9704 13.5993 43.0291 13.46C43.0951 13.3207 43.1281 13.1593 43.1281 12.976H44.4481C44.4481 13.3427 44.3821 13.6617 44.2501 13.933C44.1254 14.2043 43.9457 14.428 43.7111 14.604C43.4837 14.78 43.2161 14.912 42.9081 15C42.6001 15.088 42.2664 15.132 41.9071 15.132ZM40.5321 11.491H43.0511C43.0511 11.249 43.0217 11.0437 42.9631 10.875C42.9117 10.7063 42.8347 10.567 42.7321 10.457C42.6367 10.347 42.5194 10.27 42.3801 10.226C42.2407 10.1747 42.0831 10.149 41.9071 10.149C41.6211 10.149 41.3791 10.1967 41.1811 10.292C40.9904 10.3873 40.8437 10.534 40.7411 10.732C40.6384 10.93 40.5687 11.183 40.5321 11.491ZM47.6001 15.132C47.1307 15.132 46.7237 15.0257 46.3791 14.813C46.0344 14.6003 45.7667 14.2703 45.5761 13.823C45.3927 13.3757 45.3011 12.8 45.3011 12.096C45.3011 11.3993 45.3964 10.831 45.5871 10.391C45.7777 9.94367 46.0417 9.61367 46.3791 9.401C46.7164 9.18833 47.0977 9.082 47.5231 9.082C47.7871 9.082 48.0291 9.11133 48.2491 9.17C48.4691 9.22867 48.6634 9.32033 48.8321 9.445C49.0007 9.56233 49.1437 9.709 49.2611 9.885H49.3271V7.047H50.6691V15H49.5581L49.4481 14.23H49.3711C49.1877 14.5307 48.9384 14.758 48.6231 14.912C48.3151 15.0587 47.9741 15.132 47.6001 15.132ZM48.0181 13.977C48.3261 13.977 48.5754 13.9073 48.7661 13.768C48.9567 13.6287 49.0961 13.427 49.1841 13.163C49.2794 12.899 49.3271 12.5763 49.3271 12.195V12.052C49.3271 11.766 49.3014 11.5093 49.2501 11.282C49.1987 11.0547 49.1181 10.864 49.0081 10.71C48.9054 10.556 48.7697 10.4387 48.6011 10.358C48.4397 10.2773 48.2454 10.237 48.0181 10.237C47.6881 10.237 47.4241 10.303 47.2261 10.435C47.0354 10.5597 46.8961 10.7577 46.8081 11.029C46.7274 11.293 46.6871 11.6303 46.6871 12.041V12.195C46.6871 12.5983 46.7274 12.932 46.8081 13.196C46.8961 13.46 47.0354 13.658 47.2261 13.79C47.4241 13.9147 47.6881 13.977 48.0181 13.977ZM56.873 15.132C56.2423 15.132 55.7143 15.0257 55.289 14.813C54.8637 14.593 54.5447 14.2593 54.332 13.812C54.1193 13.3647 54.013 12.7963 54.013 12.107C54.013 11.4103 54.1193 10.842 54.332 10.402C54.5447 9.95467 54.8637 9.62467 55.289 9.412C55.7143 9.192 56.2423 9.082 56.873 9.082C57.511 9.082 58.039 9.192 58.457 9.412C58.8823 9.62467 59.2013 9.95467 59.414 10.402C59.6267 10.842 59.733 11.4103 59.733 12.107C59.733 12.7963 59.6267 13.3647 59.414 13.812C59.2013 14.2593 58.8823 14.593 58.457 14.813C58.039 15.0257 57.511 15.132 56.873 15.132ZM56.873 14.032C57.225 14.032 57.5073 13.966 57.72 13.834C57.94 13.6947 58.0977 13.4893 58.193 13.218C58.2957 12.9393 58.347 12.5947 58.347 12.184V12.03C58.347 11.6193 58.2957 11.2783 58.193 11.007C58.0977 10.7283 57.94 10.523 57.72 10.391C57.5073 10.2517 57.225 10.182 56.873 10.182C56.521 10.182 56.235 10.2517 56.015 10.391C55.8023 10.523 55.6447 10.7283 55.542 11.007C55.4467 11.2783 55.399 11.6193 55.399 12.03V12.184C55.399 12.5947 55.4467 12.9393 55.542 13.218C55.6447 13.4893 55.8023 13.6947 56.015 13.834C56.235 13.966 56.521 14.032 56.873 14.032ZM60.8732 15V9.214H61.9952L62.1052 9.984H62.1822C62.3142 9.808 62.4682 9.654 62.6442 9.522C62.8275 9.38267 63.0329 9.27633 63.2602 9.203C63.4949 9.12233 63.7515 9.082 64.0302 9.082C64.3969 9.082 64.7195 9.148 64.9982 9.28C65.2842 9.412 65.5079 9.62467 65.6692 9.918C65.8305 10.2113 65.9112 10.6037 65.9112 11.095V15H64.5582V11.337C64.5582 11.1317 64.5325 10.963 64.4812 10.831C64.4372 10.6917 64.3675 10.5817 64.2722 10.501C64.1842 10.413 64.0742 10.3507 63.9422 10.314C63.8102 10.2773 63.6635 10.259 63.5022 10.259C63.2602 10.259 63.0402 10.3177 62.8422 10.435C62.6515 10.5523 62.4975 10.7137 62.3802 10.919C62.2702 11.1243 62.2152 11.3627 62.2152 11.634V15H60.8732ZM71.7542 15.132C71.3362 15.132 70.9695 15.088 70.6542 15C70.3388 14.9047 70.0748 14.7763 69.8622 14.615C69.6495 14.4537 69.4882 14.2667 69.3782 14.054C69.2755 13.834 69.2242 13.5957 69.2242 13.339C69.2242 13.3023 69.2242 13.2693 69.2242 13.24C69.2315 13.2107 69.2352 13.1887 69.2352 13.174H70.5552C70.5552 13.1887 70.5552 13.2033 70.5552 13.218C70.5552 13.2327 70.5552 13.2473 70.5552 13.262C70.5625 13.46 70.6248 13.6213 70.7422 13.746C70.8595 13.8633 71.0135 13.9477 71.2042 13.999C71.3948 14.0503 71.5965 14.076 71.8092 14.076C71.9998 14.076 72.1795 14.0577 72.3482 14.021C72.5242 13.977 72.6672 13.911 72.7772 13.823C72.8945 13.7277 72.9532 13.6067 72.9532 13.46C72.9532 13.2693 72.8798 13.1227 72.7332 13.02C72.5865 12.9173 72.3922 12.833 72.1502 12.767C71.9155 12.701 71.6625 12.6313 71.3912 12.558C71.1492 12.492 70.9072 12.4187 70.6652 12.338C70.4232 12.2573 70.2032 12.1547 70.0052 12.03C69.8145 11.9053 69.6568 11.744 69.5322 11.546C69.4148 11.348 69.3562 11.1023 69.3562 10.809C69.3562 10.523 69.4185 10.2737 69.5432 10.061C69.6678 9.84833 69.8402 9.67233 70.0602 9.533C70.2802 9.38633 70.5405 9.27633 70.8412 9.203C71.1418 9.12967 71.4682 9.093 71.8202 9.093C72.1648 9.093 72.4765 9.12967 72.7552 9.203C73.0412 9.27633 73.2868 9.38267 73.4922 9.522C73.7048 9.654 73.8662 9.819 73.9762 10.017C74.0935 10.2077 74.1522 10.4203 74.1522 10.655C74.1522 10.7063 74.1485 10.7577 74.1412 10.809C74.1412 10.8603 74.1412 10.8897 74.1412 10.897H72.8322V10.82C72.8322 10.6807 72.7882 10.5633 72.7002 10.468C72.6195 10.3653 72.4985 10.2847 72.3372 10.226C72.1832 10.1673 71.9888 10.138 71.7542 10.138C71.5782 10.138 71.4242 10.1527 71.2922 10.182C71.1602 10.2113 71.0502 10.2517 70.9622 10.303C70.8815 10.3543 70.8192 10.413 70.7752 10.479C70.7312 10.545 70.7092 10.6183 70.7092 10.699C70.7092 10.8383 70.7642 10.9483 70.8742 11.029C70.9842 11.1097 71.1308 11.1793 71.3142 11.238C71.5048 11.2967 71.7102 11.359 71.9302 11.425C72.1942 11.4983 72.4655 11.5753 72.7442 11.656C73.0228 11.7293 73.2795 11.8247 73.5142 11.942C73.7562 12.0593 73.9505 12.2243 74.0972 12.437C74.2438 12.6497 74.3172 12.932 74.3172 13.284C74.3172 13.6213 74.2512 13.911 74.1192 14.153C73.9945 14.3877 73.8148 14.5783 73.5802 14.725C73.3528 14.8643 73.0815 14.967 72.7662 15.033C72.4582 15.099 72.1208 15.132 71.7542 15.132ZM75.4504 15V7.047H76.7924V9.874H76.8694C76.994 9.72 77.1407 9.58433 77.3094 9.467C77.478 9.34967 77.6687 9.258 77.8814 9.192C78.1014 9.11867 78.3434 9.082 78.6074 9.082C78.974 9.082 79.2967 9.148 79.5754 9.28C79.8614 9.412 80.085 9.62467 80.2464 9.918C80.4077 10.2113 80.4884 10.6037 80.4884 11.095V15H79.1354V11.337C79.1354 11.1317 79.1097 10.963 79.0584 10.831C79.0144 10.6917 78.9447 10.5817 78.8494 10.501C78.7614 10.413 78.6514 10.3507 78.5194 10.314C78.3874 10.2773 78.2407 10.259 78.0794 10.259C77.8374 10.259 77.6174 10.3177 77.4194 10.435C77.2287 10.5523 77.0747 10.7137 76.9574 10.919C76.8474 11.1243 76.7924 11.3627 76.7924 11.634V15H75.4504ZM84.4482 15.132C83.8175 15.132 83.2895 15.0257 82.8642 14.813C82.4388 14.593 82.1198 14.2593 81.9072 13.812C81.6945 13.3647 81.5882 12.7963 81.5882 12.107C81.5882 11.4103 81.6945 10.842 81.9072 10.402C82.1198 9.95467 82.4388 9.62467 82.8642 9.412C83.2895 9.192 83.8175 9.082 84.4482 9.082C85.0862 9.082 85.6142 9.192 86.0322 9.412C86.4575 9.62467 86.7765 9.95467 86.9892 10.402C87.2018 10.842 87.3082 11.4103 87.3082 12.107C87.3082 12.7963 87.2018 13.3647 86.9892 13.812C86.7765 14.2593 86.4575 14.593 86.0322 14.813C85.6142 15.0257 85.0862 15.132 84.4482 15.132ZM84.4482 14.032C84.8002 14.032 85.0825 13.966 85.2952 13.834C85.5152 13.6947 85.6728 13.4893 85.7682 13.218C85.8708 12.9393 85.9222 12.5947 85.9222 12.184V12.03C85.9222 11.6193 85.8708 11.2783 85.7682 11.007C85.6728 10.7283 85.5152 10.523 85.2952 10.391C85.0825 10.2517 84.8002 10.182 84.4482 10.182C84.0962 10.182 83.8102 10.2517 83.5902 10.391C83.3775 10.523 83.2198 10.7283 83.1172 11.007C83.0218 11.2783 82.9742 11.6193 82.9742 12.03V12.184C82.9742 12.5947 83.0218 12.9393 83.1172 13.218C83.2198 13.4893 83.3775 13.6947 83.5902 13.834C83.8102 13.966 84.0962 14.032 84.4482 14.032ZM88.4484 16.903V9.214H89.5594L89.6694 9.984H89.7464C89.9371 9.68333 90.1864 9.45967 90.4944 9.313C90.8024 9.159 91.1434 9.082 91.5174 9.082C91.9941 9.082 92.4011 9.18833 92.7384 9.401C93.0831 9.61367 93.3471 9.94367 93.5304 10.391C93.7211 10.8383 93.8164 11.414 93.8164 12.118C93.8164 12.8073 93.7211 13.3757 93.5304 13.823C93.3397 14.2703 93.0757 14.6003 92.7384 14.813C92.4084 15.0257 92.0271 15.132 91.5944 15.132C91.3304 15.132 91.0884 15.1027 90.8684 15.044C90.6484 14.9853 90.4541 14.8973 90.2854 14.78C90.1167 14.6553 89.9737 14.505 89.8564 14.329H89.7904V16.903H88.4484ZM91.0994 13.977C91.4294 13.977 91.6897 13.9147 91.8804 13.79C92.0784 13.658 92.2177 13.46 92.2984 13.196C92.3864 12.932 92.4304 12.5983 92.4304 12.195V12.041C92.4304 11.6303 92.3864 11.293 92.2984 11.029C92.2177 10.7577 92.0784 10.5597 91.8804 10.435C91.6897 10.303 91.4294 10.237 91.0994 10.237C90.7987 10.237 90.5494 10.3067 90.3514 10.446C90.1607 10.5853 90.0177 10.7907 89.9224 11.062C89.8344 11.326 89.7904 11.6523 89.7904 12.041V12.173C89.7904 12.459 89.8161 12.7157 89.8674 12.943C89.9187 13.163 89.9957 13.35 90.0984 13.504C90.2084 13.658 90.3441 13.7753 90.5054 13.856C90.6741 13.9367 90.8721 13.977 91.0994 13.977ZM97.4442 15.132C96.8282 15.132 96.3148 15.0257 95.9042 14.813C95.4935 14.593 95.1855 14.2593 94.9802 13.812C94.7748 13.3647 94.6722 12.7963 94.6722 12.107C94.6722 11.4103 94.7748 10.842 94.9802 10.402C95.1855 9.95467 95.4935 9.62467 95.9042 9.412C96.3148 9.192 96.8282 9.082 97.4442 9.082C98.0015 9.082 98.4672 9.18833 98.8412 9.401C99.2225 9.60633 99.5085 9.92533 99.6992 10.358C99.8898 10.7907 99.9852 11.3517 99.9852 12.041V12.437H96.0472C96.0618 12.7963 96.1168 13.1007 96.2122 13.35C96.3075 13.592 96.4542 13.7753 96.6522 13.9C96.8575 14.0173 97.1252 14.076 97.4552 14.076C97.6238 14.076 97.7815 14.054 97.9282 14.01C98.0748 13.966 98.2032 13.9 98.3132 13.812C98.4232 13.7167 98.5075 13.5993 98.5662 13.46C98.6322 13.3207 98.6652 13.1593 98.6652 12.976H99.9852C99.9852 13.3427 99.9192 13.6617 99.7872 13.933C99.6625 14.2043 99.4828 14.428 99.2482 14.604C99.0208 14.78 98.7532 14.912 98.4452 15C98.1372 15.088 97.8035 15.132 97.4442 15.132ZM96.0692 11.491H98.5882C98.5882 11.249 98.5588 11.0437 98.5002 10.875C98.4488 10.7063 98.3718 10.567 98.2692 10.457C98.1738 10.347 98.0565 10.27 97.9172 10.226C97.7778 10.1747 97.6202 10.149 97.4442 10.149C97.1582 10.149 96.9162 10.1967 96.7182 10.292C96.5275 10.3873 96.3808 10.534 96.2782 10.732C96.1755 10.93 96.1058 11.183 96.0692 11.491ZM100.465 15L102.533 12.019L100.608 9.214H102.236L103.38 11.007H103.446L104.612 9.214H106.141L104.205 11.986L106.251 15H104.645L103.358 12.998H103.292L101.994 15H100.465ZM107.075 16.903V9.214H108.186L108.296 9.984H108.373C108.564 9.68333 108.813 9.45967 109.121 9.313C109.429 9.159 109.77 9.082 110.144 9.082C110.621 9.082 111.028 9.18833 111.365 9.401C111.71 9.61367 111.974 9.94367 112.157 10.391C112.348 10.8383 112.443 11.414 112.443 12.118C112.443 12.8073 112.348 13.3757 112.157 13.823C111.967 14.2703 111.703 14.6003 111.365 14.813C111.035 15.0257 110.654 15.132 110.221 15.132C109.957 15.132 109.715 15.1027 109.495 15.044C109.275 14.9853 109.081 14.8973 108.912 14.78C108.744 14.6553 108.601 14.505 108.483 14.329H108.417V16.903H107.075ZM109.726 13.977C110.056 13.977 110.317 13.9147 110.507 13.79C110.705 13.658 110.845 13.46 110.925 13.196C111.013 12.932 111.057 12.5983 111.057 12.195V12.041C111.057 11.6303 111.013 11.293 110.925 11.029C110.845 10.7577 110.705 10.5597 110.507 10.435C110.317 10.303 110.056 10.237 109.726 10.237C109.426 10.237 109.176 10.3067 108.978 10.446C108.788 10.5853 108.645 10.7907 108.549 11.062C108.461 11.326 108.417 11.6523 108.417 12.041V12.173C108.417 12.459 108.443 12.7157 108.494 12.943C108.546 13.163 108.623 13.35 108.725 13.504C108.835 13.658 108.971 13.7753 109.132 13.856C109.301 13.9367 109.499 13.977 109.726 13.977ZM116.071 15.132C115.455 15.132 114.942 15.0257 114.531 14.813C114.12 14.593 113.812 14.2593 113.607 13.812C113.402 13.3647 113.299 12.7963 113.299 12.107C113.299 11.4103 113.402 10.842 113.607 10.402C113.812 9.95467 114.12 9.62467 114.531 9.412C114.942 9.192 115.455 9.082 116.071 9.082C116.628 9.082 117.094 9.18833 117.468 9.401C117.849 9.60633 118.135 9.92533 118.326 10.358C118.517 10.7907 118.612 11.3517 118.612 12.041V12.437H114.674C114.689 12.7963 114.744 13.1007 114.839 13.35C114.934 13.592 115.081 13.7753 115.279 13.9C115.484 14.0173 115.752 14.076 116.082 14.076C116.251 14.076 116.408 14.054 116.555 14.01C116.702 13.966 116.83 13.9 116.94 13.812C117.05 13.7167 117.134 13.5993 117.193 13.46C117.259 13.3207 117.292 13.1593 117.292 12.976H118.612C118.612 13.3427 118.546 13.6617 118.414 13.933C118.289 14.2043 118.11 14.428 117.875 14.604C117.648 14.78 117.38 14.912 117.072 15C116.764 15.088 116.43 15.132 116.071 15.132ZM114.696 11.491H117.215C117.215 11.249 117.186 11.0437 117.127 10.875C117.076 10.7063 116.999 10.567 116.896 10.457C116.801 10.347 116.683 10.27 116.544 10.226C116.405 10.1747 116.247 10.149 116.071 10.149C115.785 10.149 115.543 10.1967 115.345 10.292C115.154 10.3873 115.008 10.534 114.905 10.732C114.802 10.93 114.733 11.183 114.696 11.491ZM119.751 15V9.214H120.873L120.983 10.127H121.06C121.133 9.94367 121.221 9.775 121.324 9.621C121.434 9.45967 121.573 9.33133 121.742 9.236C121.911 9.13333 122.116 9.082 122.358 9.082C122.475 9.082 122.582 9.093 122.677 9.115C122.78 9.137 122.857 9.159 122.908 9.181V10.446H122.501C122.274 10.446 122.072 10.479 121.896 10.545C121.72 10.6037 121.57 10.699 121.445 10.831C121.328 10.963 121.24 11.128 121.181 11.326C121.122 11.524 121.093 11.755 121.093 12.019V15H119.751ZM125.265 15.132C124.906 15.132 124.624 15.0623 124.418 14.923C124.213 14.7763 124.066 14.593 123.978 14.373C123.898 14.1457 123.857 13.9147 123.857 13.68V10.314H123.164V9.214H123.89L124.132 7.597H125.199V9.214H126.2V10.314H125.199V13.548C125.199 13.702 125.24 13.823 125.32 13.911C125.401 13.9917 125.522 14.032 125.683 14.032H126.2V14.956C126.127 14.9853 126.035 15.011 125.925 15.033C125.823 15.0623 125.713 15.0843 125.595 15.099C125.478 15.121 125.368 15.132 125.265 15.132ZM129.45 15.132C129.032 15.132 128.666 15.088 128.35 15C128.035 14.9047 127.771 14.7763 127.558 14.615C127.346 14.4537 127.184 14.2667 127.074 14.054C126.972 13.834 126.92 13.5957 126.92 13.339C126.92 13.3023 126.92 13.2693 126.92 13.24C126.928 13.2107 126.931 13.1887 126.931 13.174H128.251C128.251 13.1887 128.251 13.2033 128.251 13.218C128.251 13.2327 128.251 13.2473 128.251 13.262C128.259 13.46 128.321 13.6213 128.438 13.746C128.556 13.8633 128.71 13.9477 128.9 13.999C129.091 14.0503 129.293 14.076 129.505 14.076C129.696 14.076 129.876 14.0577 130.044 14.021C130.22 13.977 130.363 13.911 130.473 13.823C130.591 13.7277 130.649 13.6067 130.649 13.46C130.649 13.2693 130.576 13.1227 130.429 13.02C130.283 12.9173 130.088 12.833 129.846 12.767C129.612 12.701 129.359 12.6313 129.087 12.558C128.845 12.492 128.603 12.4187 128.361 12.338C128.119 12.2573 127.899 12.1547 127.701 12.03C127.511 11.9053 127.353 11.744 127.228 11.546C127.111 11.348 127.052 11.1023 127.052 10.809C127.052 10.523 127.115 10.2737 127.239 10.061C127.364 9.84833 127.536 9.67233 127.756 9.533C127.976 9.38633 128.237 9.27633 128.537 9.203C128.838 9.12967 129.164 9.093 129.516 9.093C129.861 9.093 130.173 9.12967 130.451 9.203C130.737 9.27633 130.983 9.38267 131.188 9.522C131.401 9.654 131.562 9.819 131.672 10.017C131.79 10.2077 131.848 10.4203 131.848 10.655C131.848 10.7063 131.845 10.7577 131.837 10.809C131.837 10.8603 131.837 10.8897 131.837 10.897H130.528V10.82C130.528 10.6807 130.484 10.5633 130.396 10.468C130.316 10.3653 130.195 10.2847 130.033 10.226C129.879 10.1673 129.685 10.138 129.45 10.138C129.274 10.138 129.12 10.1527 128.988 10.182C128.856 10.2113 128.746 10.2517 128.658 10.303C128.578 10.3543 128.515 10.413 128.471 10.479C128.427 10.545 128.405 10.6183 128.405 10.699C128.405 10.8383 128.46 10.9483 128.57 11.029C128.68 11.1097 128.827 11.1793 129.01 11.238C129.201 11.2967 129.406 11.359 129.626 11.425C129.89 11.4983 130.162 11.5753 130.44 11.656C130.719 11.7293 130.976 11.8247 131.21 11.942C131.452 12.0593 131.647 12.2243 131.793 12.437C131.94 12.6497 132.013 12.932 132.013 13.284C132.013 13.6213 131.947 13.911 131.815 14.153C131.691 14.3877 131.511 14.5783 131.276 14.725C131.049 14.8643 130.778 14.967 130.462 15.033C130.154 15.099 129.817 15.132 129.45 15.132Z" fill="#1F2125"/>
</svg>
