<svg width="44" height="32" viewBox="0 0 44 32" fill="none" xmlns="http://www.w3.org/2000/svg">
  <g filter="url(#filter0_d_4491_33246)">
    <path fill-rule="evenodd" clip-rule="evenodd" d="M4 3C4 1.34315 5.34315 0 7 0H37C38.6569 0 40 1.34315 40 3V21C40 22.6569 38.6569 24 37 24H7C5.34315 24 4 22.6569 4 21V3Z" fill="white"/>
  </g>
  <g opacity="0.01">
    <rect x="11.5" y="5.25" width="20.8125" height="13.5496" fill="white"/>
  </g>
  <rect x="19.1602" y="7.6106" width="5.49022" height="8.82675" fill="#FF5F00"/>
  <path fill-rule="evenodd" clip-rule="evenodd" d="M19.7277 12.0249C19.7264 10.3027 20.5295 8.67555 21.9058 7.61226C19.5677 5.80357 16.2102 6.06703 14.1928 8.21747C12.1753 10.3679 12.1753 13.6834 14.1928 15.8338C16.2102 17.9842 19.5677 18.2477 21.9058 16.439C20.5291 15.3754 19.7259 13.7476 19.7277 12.0249Z" fill="#EB001B"/>
  <path fill-rule="evenodd" clip-rule="evenodd" d="M31.2277 15.2852V15.9215H31.165V15.4397L31.0673 15.8533H30.9997L30.902 15.4397V15.9215H30.8369V15.2852H30.9271L31.0323 15.7397L31.1375 15.2852H31.2277ZM30.6494 15.3943V15.9216H30.5943V15.3943H30.4766V15.2852H30.7746V15.3943H30.6494Z" fill="#F79E1B"/>
  <path fill-rule="evenodd" clip-rule="evenodd" d="M31.1332 12.0248C31.1331 14.174 29.8865 16.1344 27.9226 17.0736C25.9588 18.0127 23.6226 17.7657 21.9062 16.4374C23.2819 15.3732 24.0851 13.7463 24.0851 12.024C24.0851 10.3018 23.2819 8.67487 21.9062 7.61067C23.6226 6.28239 25.9588 6.03537 27.9226 6.97453C29.8865 7.91368 31.1331 9.87413 31.1332 12.0233V12.0248Z" fill="#F79E1B"/>
  <defs>
    <filter id="filter0_d_4491_33246" x="0" y="0" width="44" height="32" filterUnits="userSpaceOnUse" color-interpolation-filters="sRGB">
      <feFlood flood-opacity="0" result="BackgroundImageFix"/>
      <feColorMatrix in="SourceAlpha" type="matrix" values="0 0 0 0 0 0 0 0 0 0 0 0 0 0 0 0 0 0 127 0" result="hardAlpha"/>
      <feOffset dy="4"/>
      <feGaussianBlur stdDeviation="2"/>
      <feColorMatrix type="matrix" values="0 0 0 0 0.0449034 0 0 0 0 0.0617619 0 0 0 0 0.198315 0 0 0 0.1 0"/>
      <feBlend mode="normal" in2="BackgroundImageFix" result="effect1_dropShadow_4491_33246"/>
      <feBlend mode="normal" in="SourceGraphic" in2="effect1_dropShadow_4491_33246" result="shape"/>
    </filter>
  </defs>
</svg>
