<svg width="17" height="20" viewBox="0 0 17 20" fill="none" xmlns="http://www.w3.org/2000/svg">
<path d="M14.6673 10.4167V5.66675C14.6673 4.26662 14.6673 3.56655 14.3948 3.03177C14.1552 2.56137 13.7727 2.17892 13.3023 1.93923C12.7675 1.66675 12.0674 1.66675 10.6673 1.66675H5.33398C3.93385 1.66675 3.23379 1.66675 2.69901 1.93923C2.2286 2.17892 1.84615 2.56137 1.60647 3.03177C1.33398 3.56655 1.33398 4.26662 1.33398 5.66675V14.3334C1.33398 15.7335 1.33398 16.4336 1.60647 16.9684C1.84615 17.4388 2.2286 17.8212 2.69901 18.0609C3.23379 18.3334 3.93385 18.3334 5.33398 18.3334H8.00065M9.66732 9.16675H4.66732M6.33398 12.5001H4.66732M11.334 5.83341H4.66732M10.084 15.8334L11.7507 17.5001L15.5007 13.7501" stroke="#1F2125" stroke-width="1.5" stroke-linecap="round" stroke-linejoin="round"/>
</svg>
