<svg width="48" height="48" viewBox="0 0 48 48" fill="none" xmlns="http://www.w3.org/2000/svg">
<rect width="48" height="48" rx="24" fill="#0070E0"/>
<path d="M21.0976 16.3792C20.9308 16.3793 20.7694 16.4368 20.6426 16.5411C20.5158 16.6455 20.4317 16.79 20.4056 16.9487L19.2559 23.9686C19.3095 23.6408 19.6029 23.3992 19.9478 23.3992H23.3171C26.708 23.3992 29.5853 21.0179 30.1111 17.791C30.1502 17.5501 30.1724 17.3069 30.1774 17.0631C29.3157 16.6281 28.3034 16.3792 27.1942 16.3792H21.0976Z" fill="white" fill-opacity="0.6"/>
<path d="M30.1715 17.0633C30.1665 17.3071 30.1443 17.5503 30.1052 17.7912C29.5794 21.0182 26.7018 23.3994 23.3112 23.3994H19.9419C19.5973 23.3994 19.3035 23.6407 19.2499 23.9689L18.1927 30.4196L17.5305 34.4665C17.5176 34.5447 17.5224 34.6246 17.5447 34.7008C17.567 34.7771 17.6062 34.8477 17.6596 34.9079C17.713 34.9681 17.7794 35.0164 17.8541 35.0496C17.9288 35.0827 18.01 35.0998 18.0923 35.0998H21.7493C21.9162 35.0997 22.0775 35.0422 22.2044 34.9379C22.3312 34.8335 22.4152 34.689 22.4413 34.5303L23.4046 28.649C23.4307 28.4903 23.5148 28.3457 23.6417 28.2413C23.7687 28.1369 23.9301 28.0796 24.0971 28.0796H26.2502C29.6411 28.0796 32.5185 25.6983 33.0442 22.4714C33.4176 20.1811 32.2193 18.0969 30.1715 17.0633Z" fill="white" fill-opacity="0.4"/>
<path d="M16.9399 11.7C16.5953 11.7 16.3015 11.9413 16.2479 12.2689L13.3782 29.7865C13.3237 30.1191 13.5907 30.4198 13.9405 30.4198H18.1961L19.2528 23.969L20.4026 16.9491C20.4287 16.7904 20.5127 16.6459 20.6395 16.5415C20.7664 16.4372 20.9277 16.3797 21.0946 16.3796H27.1912C28.3006 16.3796 29.3126 16.6288 30.1744 17.0635C30.2334 14.1255 27.715 11.7 24.2526 11.7H16.9399Z" fill="white"/>
</svg>
