<svg width="13" height="16" viewBox="0 0 13 16" fill="none" xmlns="http://www.w3.org/2000/svg">
<path d="M7.83366 1.513V4.26669C7.83366 4.64006 7.83366 4.82675 7.90632 4.96935C7.97024 5.0948 8.07222 5.19678 8.19766 5.2607C8.34027 5.33336 8.52696 5.33336 8.90033 5.33336H11.654M7.83366 11.3333H3.83366M9.16699 8.66665H3.83366M11.8337 6.6588V11.4666C11.8337 12.5868 11.8337 13.1468 11.6157 13.5746C11.4239 13.951 11.118 14.2569 10.7416 14.4487C10.3138 14.6666 9.75376 14.6666 8.63366 14.6666H4.36699C3.24689 14.6666 2.68683 14.6666 2.25901 14.4487C1.88269 14.2569 1.57673 13.951 1.38498 13.5746C1.16699 13.1468 1.16699 12.5868 1.16699 11.4666V4.53331C1.16699 3.41321 1.16699 2.85316 1.38498 2.42533C1.57673 2.04901 1.88269 1.74305 2.25901 1.5513C2.68683 1.33331 3.24689 1.33331 4.36699 1.33331H6.50818C6.99736 1.33331 7.24195 1.33331 7.47212 1.38857C7.67619 1.43757 7.87128 1.51838 8.05023 1.62803C8.25206 1.75172 8.42501 1.92467 8.77092 2.27057L10.8964 4.39605C11.2423 4.74196 11.4153 4.91491 11.5389 5.11674C11.6486 5.29569 11.7294 5.49078 11.7784 5.69485C11.8337 5.92502 11.8337 6.16962 11.8337 6.6588Z" stroke="white" stroke-width="1.5" stroke-linecap="round" stroke-linejoin="round"/>
</svg>
