<svg width="20" height="18" viewBox="0 0 20 18" fill="none" xmlns="http://www.w3.org/2000/svg">
<path d="M15.8334 16.5V11.5M13.3334 14H18.3334M10.0001 11.5H6.66675C5.11361 11.5 4.33704 11.5 3.72447 11.7537C2.90771 12.092 2.2588 12.741 1.92048 13.5577C1.66675 14.1703 1.66675 14.9469 1.66675 16.5M12.9167 1.7423C14.1383 2.23679 15.0001 3.43443 15.0001 4.83333C15.0001 6.23224 14.1383 7.42988 12.9167 7.92437M11.2501 4.83333C11.2501 6.67428 9.7577 8.16667 7.91675 8.16667C6.0758 8.16667 4.58341 6.67428 4.58341 4.83333C4.58341 2.99238 6.0758 1.5 7.91675 1.5C9.7577 1.5 11.2501 2.99238 11.2501 4.83333Z" stroke="#1F2125" stroke-width="1.5" stroke-linecap="round" stroke-linejoin="round"/>
</svg>
