<svg width="20" height="20" viewBox="0 0 20 20" fill="none" xmlns="http://www.w3.org/2000/svg">
<path d="M7.83083 16.1424L8.31787 17.2378C8.46265 17.5639 8.69893 17.8409 8.99805 18.0353C9.29718 18.2298 9.64629 18.3332 10.0031 18.3332C10.3598 18.3332 10.7089 18.2298 11.008 18.0353C11.3072 17.8409 11.5435 17.5639 11.6882 17.2378L12.1753 16.1424C12.3486 15.7538 12.6403 15.4297 13.0086 15.2165C13.3793 15.0027 13.808 14.9116 14.2336 14.9563L15.4253 15.0832C15.78 15.1207 16.138 15.0545 16.4558 14.8926C16.7737 14.7307 17.0378 14.4801 17.216 14.1711C17.3945 13.8623 17.4795 13.5084 17.4608 13.1522C17.4421 12.7961 17.3204 12.453 17.1105 12.1647L16.4049 11.1952C16.1537 10.8474 16.0194 10.4289 16.0216 9.99984C16.0215 9.57199 16.157 9.15513 16.4086 8.8091L17.1142 7.83965C17.3241 7.5513 17.4458 7.20823 17.4645 6.85207C17.4832 6.4959 17.3982 6.14195 17.2197 5.83317C17.0415 5.5242 16.7774 5.27358 16.4595 5.11169C16.1417 4.94981 15.7837 4.88361 15.429 4.92113L14.2373 5.04799C13.8118 5.09268 13.383 5.00161 13.0123 4.7878C12.6432 4.57338 12.3515 4.24764 12.179 3.85725L11.6882 2.76187C11.5435 2.43581 11.3072 2.15877 11.008 1.96434C10.7089 1.76991 10.3598 1.66645 10.0031 1.6665C9.64629 1.66645 9.29718 1.76991 8.99805 1.96434C8.69893 2.15877 8.46265 2.43581 8.31787 2.76187L7.83083 3.85725C7.65827 4.24764 7.36656 4.57338 6.9975 4.7878C6.62684 5.00161 6.19805 5.09268 5.7725 5.04799L4.57713 4.92113C4.2224 4.88361 3.86441 4.94981 3.54655 5.11169C3.2287 5.27358 2.96464 5.5242 2.78638 5.83317C2.6079 6.14195 2.52287 6.4959 2.54161 6.85207C2.56034 7.20823 2.68204 7.5513 2.89194 7.83965L3.5975 8.8091C3.84911 9.15513 3.98461 9.57199 3.98453 9.99984C3.98461 10.4277 3.84911 10.8445 3.5975 11.1906L2.89194 12.16C2.68204 12.4484 2.56034 12.7914 2.54161 13.1476C2.52287 13.5038 2.6079 13.8577 2.78638 14.1665C2.96481 14.4753 3.22891 14.7258 3.54672 14.8877C3.86452 15.0495 4.22243 15.1158 4.57713 15.0785L5.76879 14.9517C6.19435 14.907 6.62314 14.9981 6.99379 15.2119C7.36423 15.4257 7.6573 15.7515 7.83083 16.1424Z" stroke="#1F2125" stroke-width="1.5" stroke-linecap="round" stroke-linejoin="round"/>
<path d="M10.0016 12.4998C11.3823 12.4998 12.5016 11.3805 12.5016 9.99984C12.5016 8.61913 11.3823 7.49984 10.0016 7.49984C8.62085 7.49984 7.50156 8.61913 7.50156 9.99984C7.50156 11.3805 8.62085 12.4998 10.0016 12.4998Z" stroke="#1F2125" stroke-width="1.5" stroke-linecap="round" stroke-linejoin="round"/>
</svg>
