<svg width="20" height="20" viewBox="0 0 20 20" fill="none" xmlns="http://www.w3.org/2000/svg">
  <path d="M9.62622 0.884797C9.76583 0.554315 10.2342 0.554316 10.3738 0.884797L12.9057 6.87839C12.9468 6.97571 13.0243 7.05315 13.1216 7.09426L19.1152 9.62622C19.4457 9.76583 19.4457 10.2342 19.1152 10.3738L13.1216 12.9057C13.0243 12.9468 12.9468 13.0243 12.9057 13.1216L10.3738 19.1152C10.2342 19.4457 9.76583 19.4457 9.62622 19.1152L7.09426 13.1216C7.05315 13.0243 6.97571 12.9468 6.87839 12.9057L0.884797 10.3738C0.554315 10.2342 0.554316 9.76583 0.884797 9.62622L6.87839 7.09426C6.97571 7.05315 7.05315 6.97571 7.09426 6.87839L9.62622 0.884797Z" fill="#1F2125"/>
</svg>
