<svg width="20" height="20" viewBox="0 0 20 20" fill="none" xmlns="http://www.w3.org/2000/svg">
    <path d="M9.53941 4.09029C9.71145 3.68306 10.2886 3.68306 10.4606 4.09029L11.9999 7.73409C12.0506 7.85401 12.146 7.94945 12.2659 8.00011L15.9097 9.53941C16.3169 9.71145 16.3169 10.2886 15.9097 10.4606L12.2659 11.9999C12.146 12.0506 12.0506 12.146 11.9999 12.2659L10.4606 15.9097C10.2886 16.3169 9.71145 16.3169 9.53941 15.9097L8.00011 12.2659C7.94945 12.146 7.85401 12.0506 7.73409 11.9999L4.09029 10.4606C3.68306 10.2886 3.68306 9.71145 4.09029 9.53941L7.73409 8.00011C7.85401 7.94945 7.94945 7.85401 8.00011 7.73409L9.53941 4.09029Z" fill="#000"/>
</svg>
