<svg xmlns="http://www.w3.org/2000/svg" width="56" height="56" viewBox="0 0 56 56" fill="none">
  <path d="M12.9638 24.6682C14.8046 16.3647 23.0283 11.1256 31.3319 12.9664C32.4642 13.2175 33.5856 12.5031 33.8366 11.3707C34.0877 10.2384 33.3732 9.11703 32.2409 8.866C21.6727 6.52309 11.2062 13.191 8.86332 23.7592C6.52041 34.3274 13.1883 44.7939 23.7565 47.1368C34.3247 49.4797 44.7912 42.8118 47.1341 32.2436C47.3851 31.1113 46.6707 29.9899 45.5384 29.7389C44.4061 29.4879 43.2847 30.2023 43.0337 31.3346C41.1928 39.6382 32.9691 44.8772 24.6656 43.0364C16.362 41.1955 11.1229 32.9718 12.9638 24.6682Z" fill="#38FAA3"/>
  <path d="M44.8837 18.9849C45.7038 18.1648 45.7038 16.8351 44.8837 16.015C44.0636 15.1949 42.7339 15.1949 41.9138 16.015L27.9987 29.9301L21.7837 23.715C20.9636 22.8949 19.6339 22.8949 18.8138 23.715C17.9937 24.5351 17.9937 25.8648 18.8138 26.6849L26.5138 34.3849C27.3339 35.205 28.6636 35.205 29.4837 34.3849L44.8837 18.9849Z" fill="#38FAA3"/>
</svg>