<svg width="20" height="20" viewBox="0 0 20 20" fill="none" xmlns="http://www.w3.org/2000/svg">
<path d="M7.08341 12.2225C7.08341 13.2964 7.95397 14.167 9.02786 14.167H10.8334C11.984 14.167 12.9167 13.2343 12.9167 12.0837C12.9167 10.9331 11.984 10.0003 10.8334 10.0003H9.16675C8.01616 10.0003 7.08341 9.06759 7.08341 7.91699C7.08341 6.7664 8.01616 5.83366 9.16675 5.83366H10.9723C12.0462 5.83366 12.9167 6.70422 12.9167 7.7781M10.0001 4.58366V5.83366M10.0001 14.167V15.417M18.3334 10.0003C18.3334 14.6027 14.6025 18.3337 10.0001 18.3337C5.39771 18.3337 1.66675 14.6027 1.66675 10.0003C1.66675 5.39795 5.39771 1.66699 10.0001 1.66699C14.6025 1.66699 18.3334 5.39795 18.3334 10.0003Z" stroke="#1F2125" stroke-width="1.5" stroke-linecap="round" stroke-linejoin="round"/>
</svg>
