<svg width="44" height="32" viewBox="0 0 44 32" fill="none" xmlns="http://www.w3.org/2000/svg">
  <g filter="url(#filter0_d_4491_33313)">
    <path fill-rule="evenodd" clip-rule="evenodd" d="M4 3C4 1.34315 5.34315 0 7 0H37C38.6569 0 40 1.34315 40 3V21C40 22.6569 38.6569 24 37 24H7C5.34315 24 4 22.6569 4 21V3Z" fill="white"/>
  </g>
  <path fill-rule="evenodd" clip-rule="evenodd" d="M20.3761 15.7467H18.4453L19.6529 8.47461H21.5836L20.3761 15.7467Z" fill="#0742A6"/>
  <path fill-rule="evenodd" clip-rule="evenodd" d="M27.3737 8.65237C26.9929 8.50523 26.3889 8.34277 25.642 8.34277C23.7353 8.34277 22.3927 9.33296 22.3844 10.7486C22.3686 11.7931 23.3457 12.3732 24.0766 12.7215C24.8235 13.0774 25.0775 13.3096 25.0775 13.6269C25.0699 14.114 24.4739 14.3386 23.918 14.3386C23.1472 14.3386 22.7341 14.2228 22.1064 13.9518L21.8522 13.8356L21.582 15.468C22.0349 15.6689 22.8692 15.8472 23.7353 15.855C25.7612 15.855 27.0801 14.8802 27.0957 13.3715C27.1034 12.5437 26.5875 11.9094 25.4751 11.3911C24.7998 11.0583 24.3862 10.834 24.3862 10.4935C24.3942 10.184 24.736 9.86702 25.4983 9.86702C26.126 9.8515 26.5872 9.99843 26.9365 10.1455L27.1112 10.2227L27.3737 8.65237Z" fill="#0742A6"/>
  <path fill-rule="evenodd" clip-rule="evenodd" d="M30.8301 8.47461H32.3236L33.8812 15.7466H32.0935C32.0935 15.7466 31.9186 14.911 31.8631 14.6557H29.3842C29.3125 14.849 28.979 15.7466 28.979 15.7466H26.9531L29.821 9.07798C30.0197 8.60602 30.3696 8.47461 30.8301 8.47461ZM30.7108 11.1358C30.7108 11.1358 30.0989 12.7527 29.9399 13.1705H31.5448C31.4654 12.8069 31.0997 11.0662 31.0997 11.0662L30.9648 10.4396C30.908 10.6009 30.8258 10.8228 30.7704 10.9724C30.7328 11.0738 30.7075 11.1421 30.7108 11.1358Z" fill="#0742A6"/>
  <path fill-rule="evenodd" clip-rule="evenodd" d="M16.8332 8.47461L14.9424 13.4335L14.7358 12.4277C14.3862 11.2673 13.2899 10.0065 12.0664 9.37956L13.7983 15.739H15.84L18.8748 8.47461H16.8332V8.47461Z" fill="#0742A6"/>
  <path fill-rule="evenodd" clip-rule="evenodd" d="M13.185 8.47461H10.0787L10.0469 8.62154C12.47 9.22501 14.0749 10.6797 14.7342 12.4281L14.0589 9.08589C13.9477 8.62144 13.6061 8.48993 13.185 8.47461Z" fill="#0742A6"/>
  <defs>
    <filter id="filter0_d_4491_33313" x="0" y="0" width="44" height="32" filterUnits="userSpaceOnUse" color-interpolation-filters="sRGB">
      <feFlood flood-opacity="0" result="BackgroundImageFix"/>
      <feColorMatrix in="SourceAlpha" type="matrix" values="0 0 0 0 0 0 0 0 0 0 0 0 0 0 0 0 0 0 127 0" result="hardAlpha"/>
      <feOffset dy="4"/>
      <feGaussianBlur stdDeviation="2"/>
      <feColorMatrix type="matrix" values="0 0 0 0 0.0449034 0 0 0 0 0.0617619 0 0 0 0 0.198315 0 0 0 0.1 0"/>
      <feBlend mode="normal" in2="BackgroundImageFix" result="effect1_dropShadow_4491_33313"/>
      <feBlend mode="normal" in="SourceGraphic" in2="effect1_dropShadow_4491_33313" result="shape"/>
    </filter>
  </defs>
</svg>
