<svg width="48" height="48" viewBox="0 0 48 48" fill="none" xmlns="http://www.w3.org/2000/svg">
<rect width="48" height="48" rx="24" fill="#88EA5C"/>
<path d="M26.0285 19.8424H28.3392L27.1767 28.1718H24.8661L26.0285 19.8424ZM23.1154 19.8424L21.5561 24.6407L20.8756 19.8424H19.2596L17.2182 24.6265L16.9631 19.8424H14.7233L15.503 28.1718H17.36L19.6565 22.9037L20.4646 28.1718H22.2932L25.3127 19.8424H23.1154ZM42.515 24.6834H37.0289C37.0573 25.7656 37.7023 26.4775 38.6521 26.4775C39.368 26.4775 39.935 26.093 40.3745 25.3598L42.2265 26.2055C41.5901 27.4649 40.249 28.2857 38.5954 28.2857C36.3414 28.2857 34.8459 26.7622 34.8459 24.3133C34.8459 21.6222 36.6036 19.7143 39.0844 19.7143C41.2675 19.7143 42.6426 21.1951 42.6426 23.5017C42.6426 23.8861 42.6001 24.2706 42.515 24.6834ZM40.4595 23.0888C40.4595 22.1206 39.9208 21.5083 39.0561 21.5083C38.1914 21.5083 37.4259 22.149 37.2275 23.0888H40.4595ZM7.50143 22.3526L5.14258 25.1213H9.35422L9.82769 23.8156H8.0231L9.12598 22.5349L9.12953 22.5007L8.41223 21.2613H11.638L9.13733 28.1718H10.8483L13.8678 19.8424H6.06684L7.50072 22.3526H7.50143ZM32.0958 21.5083C32.9108 21.5083 33.6253 21.9483 34.2491 22.7029L34.5766 20.355C33.9953 19.9599 33.2086 19.7143 32.1667 19.7143C30.097 19.7143 28.9346 20.9317 28.9346 22.4765C28.9346 23.548 29.53 24.2029 30.5081 24.6265L30.9759 24.8401C31.8477 25.2138 32.0816 25.3989 32.0816 25.7941C32.0816 26.1892 31.6883 26.4633 31.0893 26.4633C30.1005 26.4668 29.2996 25.9578 28.6971 25.0892L28.3633 27.482C29.0494 28.0074 29.929 28.2857 31.0893 28.2857C33.0562 28.2857 34.2647 27.1467 34.2647 25.5662C34.2647 24.4912 33.7898 23.8007 32.5919 23.2596L32.0816 23.0176C31.3728 22.7008 31.1318 22.5264 31.1318 22.1775C31.1318 21.8002 31.4614 21.5083 32.0958 21.5083Z" fill="#163300"/>
</svg>
